<?xml version="1.0" encoding="UTF-8"?>
<svg width="144px" height="144px" viewBox="0 0 144 144" version="1.1" xmlns="http://www.w3.org/2000/svg" xmlns:xlink="http://www.w3.org/1999/xlink">
    <!-- Generator: Sketch 49 (51002) - http://www.bohemiancoding.com/sketch -->
    <title>Logo-cr</title>
    <desc>Created with Sketch.</desc>
    <defs></defs>
    <g id="Logo-cr" stroke="none" stroke-width="1" fill="none" fill-rule="evenodd">
        <rect id="Rectangle" fill="#40BE65" x="0" y="0" width="144" height="144"></rect>
        <path d="M87.544,73.256 L103.28,73.256 C104.474673,73.256 105.454663,73.1160014 106.22,72.836 C106.985337,72.5559986 107.582665,72.1920022 108.012,71.744 C108.441335,71.2959978 108.730666,70.8106693 108.88,70.288 C109.029334,69.7653307 109.104,69.2613358 109.104,68.776 C109.104,67.767995 108.777337,66.9093369 108.124,66.2 C107.470663,65.4906631 106.173343,65.136 104.232,65.136 L89.112,65.136 L87.544,73.256 Z M112.24,76.952 C113.322672,77.2506682 114.367995,77.6799972 115.376,78.24 C116.384005,78.8000028 117.223997,79.546662 117.896,80.48 C118.568003,81.413338 119.043999,82.54266 119.324,83.868 C119.604001,85.19334 119.557335,86.789324 119.184,88.656 L118.4,92.744 C118.175999,93.9386726 118.092,94.8159972 118.148,95.376 C118.204,95.9360028 118.306666,96.3839983 118.456,96.72 L118.4,97 L104.904,97 C104.829333,96.8133324 104.764,96.524002 104.708,96.132 C104.652,95.739998 104.717332,95.114671 104.904,94.256 L105.576,90.784 C105.837335,89.4399933 105.912001,88.2920048 105.8,87.34 C105.687999,86.3879952 105.361336,85.6133363 104.82,85.016 C104.278664,84.4186637 103.532005,83.9893346 102.58,83.728 C101.627995,83.4666654 100.424007,83.336 98.968,83.336 L85.584,83.336 L82.896,97 L69.848,97 L77.968,55.336 L107.368,55.336 C110.616016,55.336 113.27599,55.6626634 115.348,56.316 C117.42001,56.9693366 119.043994,57.8093282 120.22,58.836 C121.396006,59.8626718 122.207998,61.0199936 122.656,62.308 C123.104002,63.5960064 123.328,64.8746603 123.328,66.144 C123.328,67.936009 122.98267,69.4666603 122.292,70.736 C121.60133,72.0053397 120.714672,73.0786623 119.632,73.956 C118.549328,74.8333377 117.354673,75.5146642 116.048,76 C114.741327,76.4853358 113.472006,76.8026659 112.24,76.952 Z M43.648,54.664 C48.8373593,54.664 53.0186508,55.1773282 56.192,56.204 C59.3653492,57.2306718 61.7919916,58.5653251 63.472,60.208 C65.1520084,61.8506749 66.225331,63.6893232 66.692,65.724 C67.158669,67.7586768 67.2986676,69.7839899 67.112,71.8 L53.56,71.8 C53.5226665,71.3519978 53.4106676,70.7453372 53.224,69.98 C53.0373324,69.2146628 52.5800036,68.4586704 51.852,67.712 C51.1239964,66.9653296 50.022674,66.321336 48.548,65.78 C47.073326,65.238664 45.0293464,64.968 42.416,64.968 C39.8026536,64.968 37.6093422,65.3413296 35.836,66.088 C34.0626578,66.8346704 32.6440053,67.8146606 31.58,69.028 C30.5159947,70.2413394 29.750669,71.6039924 29.284,73.116 C28.817331,74.6280076 28.584,76.1493257 28.584,77.68 C28.584,78.9120062 28.7706648,80.0973276 29.144,81.236 C29.5173352,82.3746724 30.1426623,83.3919955 31.02,84.288 C31.8973377,85.1840045 33.0546595,85.902664 34.492,86.444 C35.9293405,86.985336 37.7119894,87.256 39.84,87.256 C42.3413458,87.256 44.3666589,86.9480031 45.916,86.332 C47.4653411,85.7159969 48.669329,85.0160039 49.528,84.232 C50.386671,83.4479961 50.9746651,82.6733372 51.292,81.908 C51.6093349,81.1426628 51.805333,80.6106682 51.88,80.312 L65.488,80.312 C65.3759994,81.2080045 65.1613349,82.2626606 64.844,83.476 C64.5266651,84.6893394 64.0413366,85.9399936 63.388,87.228 C62.7346634,88.5160064 61.8386724,89.7853271 60.7,91.036 C59.5613276,92.2866729 58.1053422,93.4066617 56.332,94.396 C54.5586578,95.3853383 52.4213458,96.1786637 49.92,96.776 C47.4186542,97.3733363 44.4693503,97.672 41.072,97.672 L38.552,97.672 C33.88531,97.672 30.0213486,97.1026724 26.96,95.964 C23.8986514,94.8253276 21.4626757,93.3320092 19.652,91.484 C17.8413243,89.6359908 16.5720036,87.5173453 15.844,85.128 C15.1159964,82.7386547 14.752,80.3120123 14.752,77.848 C14.752,76.2053251 14.9386648,74.4973422 15.312,72.724 C15.6853352,70.9506578 16.2826626,69.2053419 17.104,67.488 C17.9253374,65.7706581 19.0079933,64.1373411 20.352,62.588 C21.6960067,61.0386589 23.3479902,59.6760059 25.308,58.5 C27.2680098,57.3239941 29.5546536,56.3906701 32.168,55.7 C34.7813464,55.0093299 37.7679832,54.664 41.128,54.664 L43.648,54.664 Z" id="fill" fill="#FFFFFF"></path>
    </g>
</svg>